<svg xmlns="http://www.w3.org/2000/svg" version="1.1" xmlns:xlink="http://www.w3.org/1999/xlink" xmlns:svgjs="http://svgjs.dev/svgjs" width="2000" height="1500" viewBox="0 0 2000 1500"><rect width="2000" height="1500" fill="#0055a4"></rect><g transform="matrix(0.75,0,0,0.75,249.09090909090912,278.98548387096776)"><svg viewBox="0 0 396 248" data-background-color="#0055a4" preserveAspectRatio="xMidYMid meet" height="1252" width="2000" xmlns="http://www.w3.org/2000/svg" xmlns:xlink="http://www.w3.org/1999/xlink"><g id="tight-bounds" transform="matrix(1,0,0,1,0.2400000000000091,0.4000000000000057)"><svg viewBox="0 0 395.52 247.2" height="247.2" width="395.52"><g><svg></svg></g><g><svg viewBox="0 0 395.52 247.2" height="247.2" width="395.52"><g transform="matrix(1,0,0,1,75.54432000000001,110.92786728110599)"><svg viewBox="0 0 244.43135999999996 25.344265437788017" height="25.344265437788017" width="244.43135999999996"><g><svg viewBox="0 0 244.43135999999996 25.344265437788017" height="25.344265437788017" width="244.43135999999996"><g><svg viewBox="0 0 244.43135999999996 25.344265437788017" height="25.344265437788017" width="244.43135999999996"><g><svg viewBox="0 0 244.43135999999996 25.344265437788017" height="25.344265437788017" width="244.43135999999996"><g id="textblocktransform"><svg viewBox="0 0 244.43135999999996 25.344265437788017" height="25.344265437788017" width="244.43135999999996" id="textblock"><g><svg viewBox="0 0 244.43135999999996 25.344265437788017" height="25.344265437788017" width="244.43135999999996"><g transform="matrix(1,0,0,1,0,0)"><svg width="244.43135999999996" viewBox="1.7 -35.5 347.16 36" height="25.344265437788017" data-palette-color="#c0c0c0"><path d="M9.8 0.5Q5.85 0.5 3.78-1.75 1.7-4 1.7-8.1L1.7-8.1 1.7-26.9Q1.7-31 3.78-33.25 5.85-35.5 9.8-35.5L9.8-35.5Q13.75-35.5 15.83-33.25 17.9-31 17.9-26.9L17.9-26.9 17.9-23.2 12.7-23.2 12.7-27.25Q12.7-30.5 9.95-30.5L9.95-30.5Q7.2-30.5 7.2-27.25L7.2-27.25 7.2-7.7Q7.2-4.5 9.95-4.5L9.95-4.5Q12.7-4.5 12.7-7.7L12.7-7.7 12.7-13.05 17.9-13.05 17.9-8.1Q17.9-4 15.83-1.75 13.75 0.5 9.8 0.5L9.8 0.5ZM29.25 0.5Q25.2 0.5 23.05-1.8 20.9-4.1 20.9-8.3L20.9-8.3 20.9-26.7Q20.9-30.9 23.05-33.2 25.2-35.5 29.25-35.5L29.25-35.5Q33.3-35.5 35.45-33.2 37.6-30.9 37.6-26.7L37.6-26.7 37.6-8.3Q37.6-4.1 35.45-1.8 33.3 0.5 29.25 0.5L29.25 0.5ZM29.25-4.5Q32.1-4.5 32.1-7.95L32.1-7.95 32.1-27.05Q32.1-30.5 29.25-30.5L29.25-30.5Q26.4-30.5 26.4-27.05L26.4-27.05 26.4-7.95Q26.4-4.5 29.25-4.5L29.25-4.5ZM41.3 0L41.3-35 49.45-35Q53.7-35 55.65-33.02 57.6-31.05 57.6-26.95L57.6-26.95 57.6-24.8Q57.6-19.35 54-17.9L54-17.9 54-17.8Q56-17.2 56.82-15.35 57.65-13.5 57.65-10.4L57.65-10.4 57.65-4.25Q57.65-2.75 57.75-1.83 57.85-0.9 58.25 0L58.25 0 52.65 0Q52.35-0.85 52.25-1.6 52.15-2.35 52.15-4.3L52.15-4.3 52.15-10.7Q52.15-13.1 51.37-14.05 50.6-15 48.7-15L48.7-15 46.8-15 46.8 0 41.3 0ZM46.8-20L48.8-20Q50.45-20 51.27-20.85 52.1-21.7 52.1-23.7L52.1-23.7 52.1-26.4Q52.1-28.3 51.42-29.15 50.75-30 49.3-30L49.3-30 46.8-30 46.8-20ZM61.44 0L61.44-35 68.34-35 73.69-14.05 73.79-14.05 73.79-35 78.69-35 78.69 0 73.04 0 66.44-25.55 66.34-25.55 66.34 0 61.44 0ZM82.79 0L82.79-35 97.79-35 97.79-30 88.29-30 88.29-20.75 95.84-20.75 95.84-15.75 88.29-15.75 88.29-5 97.79-5 97.79 0 82.79 0ZM100.94 0L100.94-35 109.09-35Q113.34-35 115.29-33.02 117.24-31.05 117.24-26.95L117.24-26.95 117.24-24.8Q117.24-19.35 113.64-17.9L113.64-17.9 113.64-17.8Q115.64-17.2 116.46-15.35 117.29-13.5 117.29-10.4L117.29-10.4 117.29-4.25Q117.29-2.75 117.39-1.83 117.49-0.9 117.89 0L117.89 0 112.29 0Q111.99-0.85 111.89-1.6 111.79-2.35 111.79-4.3L111.79-4.3 111.79-10.7Q111.79-13.1 111.01-14.05 110.24-15 108.34-15L108.34-15 106.44-15 106.44 0 100.94 0ZM106.44-20L108.44-20Q110.09-20 110.91-20.85 111.74-21.7 111.74-23.7L111.74-23.7 111.74-26.4Q111.74-28.3 111.06-29.15 110.39-30 108.94-30L108.94-30 106.44-30 106.44-20ZM128.24 0.5Q124.24 0.5 122.19-1.78 120.14-4.05 120.14-8.3L120.14-8.3 120.14-10.3 125.34-10.3 125.34-7.9Q125.34-4.5 128.19-4.5L128.19-4.5Q129.59-4.5 130.31-5.33 131.04-6.15 131.04-8L131.04-8Q131.04-10.2 130.04-11.88 129.04-13.55 126.34-15.9L126.34-15.9Q122.94-18.9 121.59-21.33 120.24-23.75 120.24-26.8L120.24-26.8Q120.24-30.95 122.34-33.23 124.44-35.5 128.44-35.5L128.44-35.5Q132.39-35.5 134.41-33.23 136.44-30.95 136.44-26.7L136.44-26.7 136.44-25.25 131.24-25.25 131.24-27.05Q131.24-28.85 130.54-29.68 129.84-30.5 128.49-30.5L128.49-30.5Q125.74-30.5 125.74-27.15L125.74-27.15Q125.74-25.25 126.76-23.6 127.79-21.95 130.49-19.6L130.49-19.6Q133.94-16.6 135.24-14.15 136.54-11.7 136.54-8.4L136.54-8.4Q136.54-4.1 134.41-1.8 132.29 0.5 128.24 0.5L128.24 0.5ZM143.98 0L143.98-30 138.23-30 138.23-35 155.23-35 155.23-30 149.48-30 149.48 0 143.98 0ZM165.63 0.5Q161.58 0.5 159.43-1.8 157.28-4.1 157.28-8.3L157.28-8.3 157.28-26.7Q157.28-30.9 159.43-33.2 161.58-35.5 165.63-35.5L165.63-35.5Q169.68-35.5 171.83-33.2 173.98-30.9 173.98-26.7L173.98-26.7 173.98-8.3Q173.98-4.1 171.83-1.8 169.68 0.5 165.63 0.5L165.63 0.5ZM165.63-4.5Q168.48-4.5 168.48-7.95L168.48-7.95 168.48-27.05Q168.48-30.5 165.63-30.5L165.63-30.5Q162.78-30.5 162.78-27.05L162.78-27.05 162.78-7.95Q162.78-4.5 165.63-4.5L165.63-4.5ZM177.68 0L177.68-35 184.58-35 189.93-14.05 190.03-14.05 190.03-35 194.93-35 194.93 0 189.28 0 182.68-25.55 182.58-25.55 182.58 0 177.68 0ZM199.03 0L199.03-35 214.03-35 214.03-30 204.53-30 204.53-20.75 212.08-20.75 212.08-15.75 204.53-15.75 204.53-5 214.03-5 214.03 0 199.03 0ZM225.17 0L225.17-35 239.72-35 239.72-30 230.67-30 230.67-20.25 237.77-20.25 237.77-15.25 230.67-15.25 230.67 0 225.17 0ZM242.37 0L242.37-35 247.87-35 247.87 0 242.37 0ZM251.97 0L251.97-35 258.87-35 264.22-14.05 264.31-14.05 264.31-35 269.22-35 269.22 0 263.56 0 256.97-25.55 256.87-25.55 256.87 0 251.97 0ZM271.86 0L277.56-35 285.01-35 290.71 0 285.21 0 284.21-6.95 284.21-6.85 277.96-6.85 276.96 0 271.86 0ZM278.61-11.6L283.56-11.6 281.11-28.9 281.01-28.9 278.61-11.6ZM293.36 0L293.36-35 300.26-35 305.61-14.05 305.71-14.05 305.71-35 310.61-35 310.61 0 304.96 0 298.36-25.55 298.26-25.55 298.26 0 293.36 0ZM322.46 0.5Q318.51 0.5 316.43-1.75 314.36-4 314.36-8.1L314.36-8.1 314.36-26.9Q314.36-31 316.43-33.25 318.51-35.5 322.46-35.5L322.46-35.5Q326.41-35.5 328.48-33.25 330.56-31 330.56-26.9L330.56-26.9 330.56-23.2 325.36-23.2 325.36-27.25Q325.36-30.5 322.61-30.5L322.61-30.5Q319.86-30.5 319.86-27.25L319.86-27.25 319.86-7.7Q319.86-4.5 322.61-4.5L322.61-4.5Q325.36-4.5 325.36-7.7L325.36-7.7 325.36-13.05 330.56-13.05 330.56-8.1Q330.56-4 328.48-1.75 326.41 0.5 322.46 0.5L322.46 0.5ZM333.86 0L333.86-35 348.86-35 348.86-30 339.36-30 339.36-20.75 346.91-20.75 346.91-15.75 339.36-15.75 339.36-5 348.86-5 348.86 0 333.86 0Z" opacity="1" transform="matrix(1,0,0,1,0,0)" fill="#c0c0c0" class="wordmark-text-0" data-fill-palette-color="primary" id="text-0"></path></svg></g></svg></g></svg></g></svg></g></svg></g></svg></g></svg></g><g><path d="M0 123.6c0-68.262 55.338-123.6 123.6-123.6 62.956 0 114.919 47.069 122.617 107.936l-1.152 0c-7.691-60.234-59.14-106.793-121.465-106.793-67.631 0-122.457 54.826-122.457 122.457 0 67.631 54.826 122.457 122.457 122.457 62.324 0 113.774-46.559 121.465-106.793h1.152c-7.698 60.867-59.66 107.936-122.617 107.936-68.262 0-123.6-55.338-123.6-123.6z" fill="#c0c0c0" stroke="transparent" data-fill-palette-color="tertiary"></path></g></svg></g><defs></defs></svg><rect width="395.52" height="247.2" fill="none" stroke="none" visibility="hidden"></rect></g></svg></g></svg>